<mxfile host="app.diagrams.net" modified="2021-02-05T03:11:02.804Z" agent="5.0 (Macintosh; Intel Mac OS X 10_15_4) AppleWebKit/537.36 (KHTML, like Gecko) Chrome/87.0.4280.141 Safari/537.36" etag="nJCBxYwwqmYAy87FWOKR" version="14.2.9" type="github">
  <diagram id="NcbBhJR0aANdJCcdFdX9" name="Page-1">
    <mxGraphModel dx="1426" dy="1963" grid="1" gridSize="10" guides="1" tooltips="1" connect="1" arrows="1" fold="1" page="1" pageScale="1" pageWidth="827" pageHeight="1169" math="0" shadow="0">
      <root>
        <mxCell id="0" />
        <mxCell id="1" parent="0" />
        <mxCell id="5qjB8F0QJ_zEw83LWjxl-1" value="&lt;font style=&quot;font-size: 26px&quot;&gt;领域&lt;/font&gt;" style="text;html=1;strokeColor=none;fillColor=none;align=center;verticalAlign=middle;whiteSpace=wrap;rounded=0;" vertex="1" parent="1">
          <mxGeometry x="50" y="80" width="60" height="20" as="geometry" />
        </mxCell>
        <mxCell id="5qjB8F0QJ_zEw83LWjxl-2" value="&lt;font style=&quot;font-size: 26px&quot;&gt;用户中心&lt;/font&gt;" style="rounded=0;whiteSpace=wrap;html=1;fillColor=#59D3FF;strokeColor=none;fontColor=#FFFFFF;" vertex="1" parent="1">
          <mxGeometry x="160" y="70" width="240" height="40" as="geometry" />
        </mxCell>
        <mxCell id="5qjB8F0QJ_zEw83LWjxl-5" value="&lt;font style=&quot;font-size: 26px&quot;&gt;业务&lt;/font&gt;" style="text;html=1;strokeColor=none;fillColor=none;align=center;verticalAlign=middle;whiteSpace=wrap;rounded=0;" vertex="1" parent="1">
          <mxGeometry x="50" y="160" width="60" height="20" as="geometry" />
        </mxCell>
        <mxCell id="5qjB8F0QJ_zEw83LWjxl-7" value="&lt;font style=&quot;font-size: 26px&quot;&gt;运营系统&lt;/font&gt;" style="rounded=0;whiteSpace=wrap;html=1;fillColor=#59D3FF;strokeColor=none;fontColor=#FFFFFF;" vertex="1" parent="1">
          <mxGeometry x="520" y="70" width="240" height="40" as="geometry" />
        </mxCell>
        <mxCell id="5qjB8F0QJ_zEw83LWjxl-8" value="&lt;span style=&quot;font-size: 26px&quot;&gt;八爪鱼&lt;/span&gt;" style="rounded=0;whiteSpace=wrap;html=1;fillColor=#59D3FF;strokeColor=none;fontColor=#FFFFFF;" vertex="1" parent="1">
          <mxGeometry x="490" y="150" width="110" height="40" as="geometry" />
        </mxCell>
        <mxCell id="5qjB8F0QJ_zEw83LWjxl-25" value="聚米" style="rounded=0;whiteSpace=wrap;html=1;strokeColor=none;fontColor=#FFFFFF;fontSize=20;fillColor=#CCCCCC;" vertex="1" parent="1">
          <mxGeometry x="490" y="200" width="110" height="30" as="geometry" />
        </mxCell>
        <mxCell id="5qjB8F0QJ_zEw83LWjxl-27" value="&lt;span style=&quot;font-size: 26px&quot;&gt;用户中台&lt;/span&gt;" style="rounded=0;whiteSpace=wrap;html=1;fontColor=#FFFFFF;strokeWidth=2;strokeColor=none;fillColor=#FFB366;" vertex="1" parent="1">
          <mxGeometry x="280" y="150" width="110" height="40" as="geometry" />
        </mxCell>
        <mxCell id="5qjB8F0QJ_zEw83LWjxl-28" value="&lt;span style=&quot;font-size: 26px&quot;&gt;积分权益&lt;/span&gt;" style="rounded=0;whiteSpace=wrap;html=1;fontColor=#FFFFFF;strokeWidth=2;strokeColor=none;fillColor=#FFB366;" vertex="1" parent="1">
          <mxGeometry x="160" y="150" width="110" height="40" as="geometry" />
        </mxCell>
        <mxCell id="5qjB8F0QJ_zEw83LWjxl-30" value="&lt;font style=&quot;font-size: 26px&quot;&gt;框架&lt;/font&gt;" style="text;html=1;strokeColor=none;fillColor=none;align=center;verticalAlign=middle;whiteSpace=wrap;rounded=0;" vertex="1" parent="1">
          <mxGeometry x="50" y="300" width="60" height="20" as="geometry" />
        </mxCell>
        <mxCell id="5qjB8F0QJ_zEw83LWjxl-31" value="&lt;font style=&quot;font-size: 26px&quot;&gt;Vue&lt;/font&gt;" style="rounded=0;whiteSpace=wrap;html=1;fillColor=#59D3FF;strokeColor=none;fontColor=#FFFFFF;" vertex="1" parent="1">
          <mxGeometry x="160" y="290" width="600" height="40" as="geometry" />
        </mxCell>
        <mxCell id="5qjB8F0QJ_zEw83LWjxl-32" value="&lt;font style=&quot;font-size: 26px&quot;&gt;小程序&amp;nbsp;&lt;/font&gt;" style="rounded=0;whiteSpace=wrap;html=1;fillColor=#59D3FF;strokeColor=none;fontColor=#FFFFFF;" vertex="1" parent="1">
          <mxGeometry x="800" y="290" width="180" height="40" as="geometry" />
        </mxCell>
        <mxCell id="5qjB8F0QJ_zEw83LWjxl-34" value="&lt;font style=&quot;font-size: 26px&quot;&gt;RN&lt;/font&gt;" style="rounded=0;whiteSpace=wrap;html=1;fillColor=#59D3FF;strokeColor=none;fontColor=#FFFFFF;" vertex="1" parent="1">
          <mxGeometry x="990" y="290" width="60" height="40" as="geometry" />
        </mxCell>
        <mxCell id="5qjB8F0QJ_zEw83LWjxl-6" value="&lt;font style=&quot;font-size: 26px&quot;&gt;营销活动&lt;/font&gt;" style="rounded=0;whiteSpace=wrap;html=1;fillColor=#59D3FF;strokeColor=none;fontColor=#FFFFFF;" vertex="1" parent="1">
          <mxGeometry x="878" y="70" width="240" height="40" as="geometry" />
        </mxCell>
        <mxCell id="5qjB8F0QJ_zEw83LWjxl-10" value="&lt;font style=&quot;font-size: 26px&quot;&gt;拼团&lt;/font&gt;" style="rounded=0;whiteSpace=wrap;html=1;fillColor=#59D3FF;strokeColor=none;fontColor=#FFFFFF;" vertex="1" parent="1">
          <mxGeometry x="930" y="150" width="110" height="40" as="geometry" />
        </mxCell>
        <mxCell id="5qjB8F0QJ_zEw83LWjxl-11" value="&lt;font style=&quot;font-size: 26px&quot;&gt;一元众筹&lt;/font&gt;" style="rounded=0;whiteSpace=wrap;html=1;fillColor=#59D3FF;strokeColor=none;fontColor=#FFFFFF;" vertex="1" parent="1">
          <mxGeometry x="800" y="150" width="110" height="40" as="geometry" />
        </mxCell>
        <mxCell id="5qjB8F0QJ_zEw83LWjxl-12" value="&lt;span style=&quot;font-size: 26px&quot;&gt;埋点规范&lt;/span&gt;" style="rounded=0;whiteSpace=wrap;html=1;fontColor=#FFFFFF;strokeWidth=2;strokeColor=none;fillColor=#CCCCCC;" vertex="1" parent="1">
          <mxGeometry x="1240.5" y="70" width="149.5" height="70" as="geometry" />
        </mxCell>
        <mxCell id="5qjB8F0QJ_zEw83LWjxl-14" value="&lt;span style=&quot;font-size: 20px;&quot;&gt;企业购&lt;/span&gt;" style="rounded=0;whiteSpace=wrap;html=1;strokeColor=none;fontColor=#FFFFFF;fontSize=20;fillColor=#CCCCCC;" vertex="1" parent="1">
          <mxGeometry x="800" y="240" width="80" height="30" as="geometry" />
        </mxCell>
        <mxCell id="5qjB8F0QJ_zEw83LWjxl-20" value="&lt;span style=&quot;font-size: 20px&quot;&gt;老带新&lt;/span&gt;" style="rounded=0;whiteSpace=wrap;html=1;strokeColor=none;fontColor=#FFFFFF;fontSize=20;fillColor=#CCCCCC;" vertex="1" parent="1">
          <mxGeometry x="887" y="240" width="103" height="30" as="geometry" />
        </mxCell>
        <mxCell id="5qjB8F0QJ_zEw83LWjxl-21" value="&amp;nbsp;老虎机" style="rounded=0;whiteSpace=wrap;html=1;strokeColor=none;fontColor=#FFFFFF;fontSize=20;fillColor=#CCCCCC;" vertex="1" parent="1">
          <mxGeometry x="800" y="200" width="80" height="30" as="geometry" />
        </mxCell>
        <mxCell id="5qjB8F0QJ_zEw83LWjxl-22" value="新人大礼包" style="rounded=0;whiteSpace=wrap;html=1;strokeColor=none;fontColor=#FFFFFF;fontSize=20;fillColor=#CCCCCC;" vertex="1" parent="1">
          <mxGeometry x="887" y="200" width="103" height="30" as="geometry" />
        </mxCell>
        <mxCell id="5qjB8F0QJ_zEw83LWjxl-23" value="手机号领券" style="rounded=0;whiteSpace=wrap;html=1;strokeColor=none;fontColor=#FFFFFF;fontSize=20;fillColor=#CCCCCC;" vertex="1" parent="1">
          <mxGeometry x="1060" y="240" width="110" height="30" as="geometry" />
        </mxCell>
        <mxCell id="5qjB8F0QJ_zEw83LWjxl-24" value="资格领券" style="rounded=0;whiteSpace=wrap;html=1;strokeColor=none;fontColor=#FFFFFF;fontSize=20;fillColor=#CCCCCC;" vertex="1" parent="1">
          <mxGeometry x="1060" y="200" width="110" height="30" as="geometry" />
        </mxCell>
        <mxCell id="5qjB8F0QJ_zEw83LWjxl-33" value="&lt;font style=&quot;font-size: 26px&quot;&gt;weex&lt;/font&gt;" style="rounded=0;whiteSpace=wrap;html=1;fillColor=#59D3FF;strokeColor=none;fontColor=#FFFFFF;" vertex="1" parent="1">
          <mxGeometry x="1060" y="290" width="110" height="40" as="geometry" />
        </mxCell>
        <mxCell id="5qjB8F0QJ_zEw83LWjxl-41" value="&lt;font style=&quot;font-size: 26px&quot;&gt;服务&lt;/font&gt;" style="text;html=1;strokeColor=none;fillColor=none;align=center;verticalAlign=middle;whiteSpace=wrap;rounded=0;" vertex="1" parent="1">
          <mxGeometry x="49.5" y="440" width="60" height="20" as="geometry" />
        </mxCell>
        <mxCell id="5qjB8F0QJ_zEw83LWjxl-44" value="&lt;font style=&quot;font-size: 26px&quot;&gt;开发工具&lt;/font&gt;" style="text;html=1;strokeColor=none;fillColor=none;align=center;verticalAlign=middle;whiteSpace=wrap;rounded=0;" vertex="1" parent="1">
          <mxGeometry x="24.5" y="530" width="110" height="20" as="geometry" />
        </mxCell>
        <mxCell id="5qjB8F0QJ_zEw83LWjxl-45" value="&lt;span style=&quot;font-size: 26px&quot;&gt;发布服务&lt;/span&gt;" style="rounded=0;whiteSpace=wrap;html=1;fontColor=#FFFFFF;strokeWidth=2;strokeColor=none;fillColor=#FFB366;" vertex="1" parent="1">
          <mxGeometry x="159.5" y="430" width="220" height="40" as="geometry" />
        </mxCell>
        <mxCell id="5qjB8F0QJ_zEw83LWjxl-46" value="&lt;span style=&quot;font-size: 26px&quot;&gt;工程架构&lt;/span&gt;" style="rounded=0;whiteSpace=wrap;html=1;fontColor=#FFFFFF;strokeWidth=2;strokeColor=none;fillColor=#FFB366;" vertex="1" parent="1">
          <mxGeometry x="969.5" y="430" width="200" height="160" as="geometry" />
        </mxCell>
        <mxCell id="5qjB8F0QJ_zEw83LWjxl-50" value="&lt;span style=&quot;font-size: 26px&quot;&gt;营销互动后台&lt;/span&gt;" style="rounded=0;whiteSpace=wrap;html=1;fillColor=#59D3FF;strokeColor=none;fontColor=#FFFFFF;" vertex="1" parent="1">
          <mxGeometry x="620" y="150" width="160" height="40" as="geometry" />
        </mxCell>
        <mxCell id="5qjB8F0QJ_zEw83LWjxl-51" value="&lt;span style=&quot;font-size: 26px&quot;&gt;CI &amp;amp; jenkins&lt;/span&gt;" style="rounded=0;whiteSpace=wrap;html=1;fontColor=#FFFFFF;strokeWidth=2;strokeColor=none;fillColor=#FFB366;" vertex="1" parent="1">
          <mxGeometry x="719.5" y="430" width="220" height="40" as="geometry" />
        </mxCell>
        <mxCell id="5qjB8F0QJ_zEw83LWjxl-53" value="&lt;span style=&quot;font-size: 26px&quot;&gt;Mock服务&lt;/span&gt;" style="rounded=0;whiteSpace=wrap;html=1;fontColor=#FFFFFF;strokeWidth=2;strokeColor=none;fillColor=#FFB366;" vertex="1" parent="1">
          <mxGeometry x="429.5" y="430" width="230" height="40" as="geometry" />
        </mxCell>
        <mxCell id="5qjB8F0QJ_zEw83LWjxl-54" value="&lt;span style=&quot;font-size: 26px&quot;&gt;日志规范&lt;/span&gt;" style="rounded=0;whiteSpace=wrap;html=1;fontColor=#FFFFFF;strokeWidth=2;strokeColor=none;fillColor=#CCCCCC;" vertex="1" parent="1">
          <mxGeometry x="1241" y="180" width="149.5" height="70" as="geometry" />
        </mxCell>
        <mxCell id="5qjB8F0QJ_zEw83LWjxl-55" value="" style="endArrow=none;html=1;fontSize=20;fontColor=#FFFFFF;strokeWidth=2;" edge="1" parent="1">
          <mxGeometry width="50" height="50" relative="1" as="geometry">
            <mxPoint x="10" y="280" as="sourcePoint" />
            <mxPoint x="1830" y="280" as="targetPoint" />
          </mxGeometry>
        </mxCell>
        <mxCell id="5qjB8F0QJ_zEw83LWjxl-56" value="&lt;span style=&quot;font-size: 26px&quot;&gt;组件规范&lt;/span&gt;" style="rounded=0;whiteSpace=wrap;html=1;fontColor=#FFFFFF;strokeWidth=2;strokeColor=none;fillColor=#CCCCCC;" vertex="1" parent="1">
          <mxGeometry x="1241" y="360" width="149.5" height="40" as="geometry" />
        </mxCell>
        <mxCell id="5qjB8F0QJ_zEw83LWjxl-57" value="&lt;font style=&quot;font-size: 18px&quot;&gt;CR&lt;br&gt;规范&lt;/font&gt;" style="rounded=0;whiteSpace=wrap;html=1;fontColor=#FFFFFF;strokeWidth=2;strokeColor=none;fillColor=#CCCCCC;" vertex="1" parent="1">
          <mxGeometry x="1240.5" y="430" width="70" height="40" as="geometry" />
        </mxCell>
        <mxCell id="5qjB8F0QJ_zEw83LWjxl-58" value="&lt;font style=&quot;font-size: 18px&quot;&gt;部署&lt;br&gt;规范&lt;/font&gt;" style="rounded=0;whiteSpace=wrap;html=1;fontColor=#FFFFFF;strokeWidth=2;strokeColor=none;fillColor=#CCCCCC;" vertex="1" parent="1">
          <mxGeometry x="1320" y="430" width="70" height="40" as="geometry" />
        </mxCell>
        <mxCell id="5qjB8F0QJ_zEw83LWjxl-60" value="&lt;font style=&quot;font-size: 26px&quot;&gt;规范&lt;/font&gt;" style="text;html=1;strokeColor=none;fillColor=none;align=center;verticalAlign=middle;whiteSpace=wrap;rounded=0;" vertex="1" parent="1">
          <mxGeometry x="1285.75" y="30" width="60" height="20" as="geometry" />
        </mxCell>
        <mxCell id="5qjB8F0QJ_zEw83LWjxl-61" value="&lt;font style=&quot;font-size: 26px&quot;&gt;监控告警体系&lt;/font&gt;" style="text;html=1;strokeColor=none;fillColor=none;align=center;verticalAlign=middle;whiteSpace=wrap;rounded=0;" vertex="1" parent="1">
          <mxGeometry x="1520" y="20" width="90" height="20" as="geometry" />
        </mxCell>
        <mxCell id="5qjB8F0QJ_zEw83LWjxl-62" value="&lt;span style=&quot;font-size: 26px&quot;&gt;黄金瞳&lt;/span&gt;" style="rounded=0;whiteSpace=wrap;html=1;strokeWidth=2;strokeColor=none;fontColor=#FFFFFF;fillColor=#CC99FF;" vertex="1" parent="1">
          <mxGeometry x="1490.25" y="70" width="149.5" height="40" as="geometry" />
        </mxCell>
        <mxCell id="5qjB8F0QJ_zEw83LWjxl-64" value="&lt;span style=&quot;font-size: 26px&quot;&gt;Sentry&lt;/span&gt;" style="rounded=0;whiteSpace=wrap;html=1;strokeWidth=2;strokeColor=none;fontColor=#FFFFFF;fillColor=#CC99FF;" vertex="1" parent="1">
          <mxGeometry x="1490.25" y="140" width="149.5" height="40" as="geometry" />
        </mxCell>
        <mxCell id="5qjB8F0QJ_zEw83LWjxl-65" value="&lt;span style=&quot;font-size: 26px&quot;&gt;小程序监控&lt;/span&gt;" style="rounded=0;whiteSpace=wrap;html=1;strokeWidth=2;strokeColor=none;fontColor=#FFFFFF;fillColor=#CC99FF;" vertex="1" parent="1">
          <mxGeometry x="1490" y="210" width="149.5" height="40" as="geometry" />
        </mxCell>
        <mxCell id="5qjB8F0QJ_zEw83LWjxl-67" value="&lt;font style=&quot;font-size: 26px&quot;&gt;数据运营体系&lt;/font&gt;" style="text;html=1;strokeColor=none;fillColor=none;align=center;verticalAlign=middle;whiteSpace=wrap;rounded=0;" vertex="1" parent="1">
          <mxGeometry x="1720" y="20" width="90" height="20" as="geometry" />
        </mxCell>
        <mxCell id="5qjB8F0QJ_zEw83LWjxl-68" value="&lt;span style=&quot;font-size: 26px&quot;&gt;核心指标？&lt;/span&gt;" style="rounded=0;whiteSpace=wrap;html=1;strokeWidth=2;fillColor=#f8cecc;strokeColor=none;fontColor=#FFFFFF;" vertex="1" parent="1">
          <mxGeometry x="1680" y="70" width="149.5" height="70" as="geometry" />
        </mxCell>
        <mxCell id="5qjB8F0QJ_zEw83LWjxl-69" value="" style="endArrow=classic;html=1;strokeWidth=2;fontSize=20;fontColor=#FFFFFF;dashed=1;" edge="1" parent="1">
          <mxGeometry width="50" height="50" relative="1" as="geometry">
            <mxPoint x="1910" y="390" as="sourcePoint" />
            <mxPoint x="1910" y="160" as="targetPoint" />
          </mxGeometry>
        </mxCell>
        <mxCell id="5qjB8F0QJ_zEw83LWjxl-70" value="&lt;font style=&quot;font-size: 26px&quot;&gt;线上&lt;/font&gt;" style="text;html=1;strokeColor=none;fillColor=none;align=center;verticalAlign=middle;whiteSpace=wrap;rounded=0;" vertex="1" parent="1">
          <mxGeometry x="1880" y="120" width="60" height="20" as="geometry" />
        </mxCell>
        <mxCell id="5qjB8F0QJ_zEw83LWjxl-71" value="&lt;font style=&quot;font-size: 26px&quot;&gt;线下&lt;br&gt;&lt;/font&gt;" style="text;html=1;strokeColor=none;fillColor=none;align=center;verticalAlign=middle;whiteSpace=wrap;rounded=0;" vertex="1" parent="1">
          <mxGeometry x="1880" y="430" width="60" height="20" as="geometry" />
        </mxCell>
        <mxCell id="5qjB8F0QJ_zEw83LWjxl-73" value="&lt;span style=&quot;font-size: 26px&quot;&gt;接入规范&lt;/span&gt;" style="rounded=0;whiteSpace=wrap;html=1;fontColor=#FFFFFF;strokeWidth=2;strokeColor=none;fillColor=#CCCCCC;" vertex="1" parent="1">
          <mxGeometry x="1241" y="488" width="149.5" height="40" as="geometry" />
        </mxCell>
        <mxCell id="5qjB8F0QJ_zEw83LWjxl-74" value="&lt;span style=&quot;font-size: 26px&quot;&gt;编码规范&lt;/span&gt;" style="rounded=0;whiteSpace=wrap;html=1;fontColor=#FFFFFF;strokeWidth=2;strokeColor=none;fillColor=#CCCCCC;" vertex="1" parent="1">
          <mxGeometry x="1241" y="545" width="149.5" height="40" as="geometry" />
        </mxCell>
        <mxCell id="5qjB8F0QJ_zEw83LWjxl-75" value="&lt;span style=&quot;font-size: 26px&quot;&gt;种子模板&lt;/span&gt;" style="rounded=0;whiteSpace=wrap;html=1;fontColor=#FFFFFF;strokeWidth=2;strokeColor=none;fillColor=#FFB366;" vertex="1" parent="1">
          <mxGeometry x="159.5" y="500" width="170.5" height="40" as="geometry" />
        </mxCell>
        <mxCell id="5qjB8F0QJ_zEw83LWjxl-76" value="&lt;font style=&quot;font-size: 26px&quot;&gt;组件&lt;/font&gt;" style="text;html=1;strokeColor=none;fillColor=none;align=center;verticalAlign=middle;whiteSpace=wrap;rounded=0;" vertex="1" parent="1">
          <mxGeometry x="49.5" y="370" width="60" height="20" as="geometry" />
        </mxCell>
        <mxCell id="5qjB8F0QJ_zEw83LWjxl-77" value="&lt;span style=&quot;font-size: 26px&quot;&gt;Element-UI&lt;/span&gt;" style="rounded=0;whiteSpace=wrap;html=1;fillColor=#59D3FF;strokeColor=none;fontColor=#FFFFFF;" vertex="1" parent="1">
          <mxGeometry x="160" y="360" width="240" height="40" as="geometry" />
        </mxCell>
        <mxCell id="5qjB8F0QJ_zEw83LWjxl-78" value="&lt;span style=&quot;font-size: 26px&quot;&gt;业务组件库&lt;/span&gt;" style="rounded=0;whiteSpace=wrap;html=1;fillColor=#59D3FF;strokeColor=none;fontColor=#FFFFFF;" vertex="1" parent="1">
          <mxGeometry x="640" y="360" width="240" height="40" as="geometry" />
        </mxCell>
        <mxCell id="5qjB8F0QJ_zEw83LWjxl-80" value="&lt;span style=&quot;font-size: 26px&quot;&gt;doplo组件库&lt;/span&gt;" style="rounded=0;whiteSpace=wrap;html=1;fillColor=#59D3FF;strokeColor=none;fontColor=#FFFFFF;" vertex="1" parent="1">
          <mxGeometry x="990" y="360" width="180" height="40" as="geometry" />
        </mxCell>
        <mxCell id="5qjB8F0QJ_zEw83LWjxl-81" value="&lt;span style=&quot;font-size: 26px&quot;&gt;开发工具&lt;/span&gt;" style="rounded=0;whiteSpace=wrap;html=1;fontColor=#FFFFFF;strokeWidth=2;strokeColor=none;fillColor=#FFB366;" vertex="1" parent="1">
          <mxGeometry x="159.5" y="550" width="170.5" height="40" as="geometry" />
        </mxCell>
        <mxCell id="5qjB8F0QJ_zEw83LWjxl-83" value="&lt;span style=&quot;font-size: 26px&quot;&gt;Uni-app&lt;/span&gt;" style="rounded=0;whiteSpace=wrap;html=1;fontColor=#FFFFFF;strokeWidth=2;strokeColor=none;fillColor=#FFB366;" vertex="1" parent="1">
          <mxGeometry x="362" y="500" width="170.5" height="40" as="geometry" />
        </mxCell>
        <mxCell id="5qjB8F0QJ_zEw83LWjxl-84" value="&lt;span style=&quot;font-size: 26px&quot;&gt;Utils工具库&lt;/span&gt;" style="rounded=0;whiteSpace=wrap;html=1;fontColor=#FFFFFF;strokeWidth=2;strokeColor=none;fillColor=#FFB366;" vertex="1" parent="1">
          <mxGeometry x="564" y="500" width="170.5" height="40" as="geometry" />
        </mxCell>
        <mxCell id="5qjB8F0QJ_zEw83LWjxl-85" value="&lt;span style=&quot;font-size: 26px&quot;&gt;Eslint-Plugin&lt;/span&gt;" style="rounded=0;whiteSpace=wrap;html=1;fontColor=#FFFFFF;strokeWidth=2;strokeColor=none;fillColor=#FFB366;" vertex="1" parent="1">
          <mxGeometry x="769" y="500" width="170.5" height="40" as="geometry" />
        </mxCell>
        <mxCell id="5qjB8F0QJ_zEw83LWjxl-86" value="&lt;font style=&quot;font-size: 22px&quot;&gt;微信开发者工具&lt;/font&gt;" style="rounded=0;whiteSpace=wrap;html=1;fontColor=#FFFFFF;strokeWidth=2;strokeColor=none;fillColor=#FFB366;" vertex="1" parent="1">
          <mxGeometry x="362" y="550" width="170.5" height="40" as="geometry" />
        </mxCell>
        <mxCell id="5qjB8F0QJ_zEw83LWjxl-87" value="&lt;span style=&quot;font-size: 26px&quot;&gt;基础库BSL&lt;/span&gt;" style="rounded=0;whiteSpace=wrap;html=1;fontColor=#FFFFFF;strokeWidth=2;strokeColor=none;fillColor=#FFB366;" vertex="1" parent="1">
          <mxGeometry x="564" y="550" width="170.5" height="40" as="geometry" />
        </mxCell>
        <mxCell id="5qjB8F0QJ_zEw83LWjxl-88" value="&lt;span style=&quot;font-size: 26px&quot;&gt;......&lt;/span&gt;" style="rounded=0;whiteSpace=wrap;html=1;fontColor=#FFFFFF;strokeWidth=2;strokeColor=none;fillColor=#FFB366;" vertex="1" parent="1">
          <mxGeometry x="769" y="550" width="170.5" height="40" as="geometry" />
        </mxCell>
      </root>
    </mxGraphModel>
  </diagram>
</mxfile>
